<svg width="66" height="26" viewBox="0 0 66 26" fill="none" xmlns="http://www.w3.org/2000/svg">
<path d="M20.8 6.28V8.56H17.04L15.52 17.96H19.4V20.24H15.16L14.2 26H11.8L12.72 20.24H5.96L5.04 26H2.6L3.56 20.24H0.04V17.96H3.96L5.48 8.56H1.44V6.28H5.92L6.76 0.919999H9.16L8.28 6.28H15.04L15.92 0.919999H18.32L17.44 6.28H20.8ZM13.12 17.96L14.64 8.56H7.92L6.36 17.96H13.12Z" fill="#EFC764"/>
<path d="M28.1316 17.88V26H24.7316V0.919999H33.2516C36.7982 0.919999 39.3316 1.56 40.8516 2.84C42.3982 4.12 43.1716 6.21333 43.1716 9.12C43.1716 12.08 42.3716 14.28 40.7716 15.72C39.1716 17.16 36.7049 17.88 33.3716 17.88H28.1316ZM39.7316 9.12C39.7316 7.28 39.2249 5.97333 38.2116 5.2C37.2249 4.4 35.5716 4 33.2516 4H28.1316V14.88H33.2516C35.5716 14.88 37.2249 14.4267 38.2116 13.52C39.2249 12.6133 39.7316 11.1467 39.7316 9.12Z" fill="#FEAFBE"/>
<path d="M65.2706 18.8C65.2706 21.36 64.5773 23.2 63.1906 24.32C61.804 25.44 59.5773 26 56.5106 26H47.2706V0.919999H56.4706C59.244 0.919999 61.2173 1.38667 62.3906 2.32C63.564 3.25333 64.1506 4.85333 64.1506 7.12C64.1506 8.74667 63.8573 10 63.2706 10.88C62.7106 11.76 61.7506 12.36 60.3906 12.68C62.0173 12.8933 63.2306 13.5067 64.0306 14.52C64.8573 15.5333 65.2706 16.96 65.2706 18.8ZM60.9906 7.6C60.9906 6.21333 60.6573 5.25333 59.9906 4.72C59.324 4.16 58.164 3.88 56.5106 3.88H50.6706V11.72H56.5106C58.1106 11.72 59.2573 11.4 59.9506 10.76C60.644 10.12 60.9906 9.06667 60.9906 7.6ZM61.9906 18.6C61.9906 17.1067 61.5773 16.0667 60.7506 15.48C59.924 14.8933 58.5106 14.6 56.5106 14.6H50.6706V22.96H56.5106C58.5106 22.96 59.924 22.64 60.7506 22C61.5773 21.36 61.9906 20.2267 61.9906 18.6Z" fill="#B3DFD3"/>
</svg>
