<svg width="607" height="65" viewBox="0 0 607 65" fill="none" xmlns="http://www.w3.org/2000/svg">
<path d="M8.7 43.7V64H0.2V1.3H21.5C30.3667 1.3 36.7 2.9 40.5 6.09999C44.3667 9.3 46.3 14.5333 46.3 21.8C46.3 29.2 44.3 34.7 40.3 38.3C36.3 41.9 30.1333 43.7 21.8 43.7H8.7ZM37.7 21.8C37.7 17.2 36.4333 13.9333 33.9 12C31.4333 10 27.3 9 21.5 9H8.7V36.2H21.5C27.3 36.2 31.4333 35.0667 33.9 32.8C36.4333 30.5333 37.7 26.8667 37.7 21.8ZM333.091 46C333.091 52.4 331.357 57 327.891 59.8C324.424 62.6 318.857 64 311.191 64H288.091V1.3H311.091C318.024 1.3 322.957 2.46666 325.891 4.8C328.824 7.13333 330.291 11.1333 330.291 16.8C330.291 20.8667 329.557 24 328.091 26.2C326.691 28.4 324.291 29.9 320.891 30.7C324.957 31.2333 327.991 32.7667 329.991 35.3C332.057 37.8333 333.091 41.4 333.091 46ZM322.391 18C322.391 14.5333 321.557 12.1333 319.891 10.8C318.224 9.4 315.324 8.7 311.191 8.7H296.591V28.3H311.191C315.191 28.3 318.057 27.5 319.791 25.9C321.524 24.3 322.391 21.6667 322.391 18ZM324.891 45.5C324.891 41.7667 323.857 39.1667 321.791 37.7C319.724 36.2333 316.191 35.5 311.191 35.5H296.591V56.4H311.191C316.191 56.4 319.724 55.6 321.791 54C323.857 52.4 324.891 49.5667 324.891 45.5ZM547.659 56V64H506.059V1.3H546.759V9H514.559V28.2H543.059V35.7H514.559V56H547.659Z" fill="#FEAFBE"/>
<path d="M109.748 32.5C109.748 43.9 107.548 52.1333 103.148 57.2C98.8143 62.2667 91.7143 64.8 81.8477 64.8C71.2477 64.8 63.9143 62.4667 59.8477 57.8C55.8477 53.0667 53.8477 44.6333 53.8477 32.5C53.8477 21.1667 56.0477 12.9667 60.4477 7.9C64.8477 2.83333 71.981 0.299998 81.8477 0.299998C92.4477 0.299998 99.7477 2.66666 103.748 7.4C107.748 12.0667 109.748 20.4333 109.748 32.5ZM65.4477 50.6C66.7143 52.8667 68.581 54.4667 71.0477 55.4C73.5143 56.3333 77.1143 56.8 81.8477 56.8C89.2477 56.8 94.3143 55.0333 97.0477 51.5C99.781 47.9 101.148 41.5667 101.148 32.5C101.148 27.9667 100.914 24.2667 100.448 21.4C99.981 18.4667 99.2477 16.1 98.2477 14.3C96.981 12.0333 95.1143 10.4333 92.6477 9.5C90.2477 8.5 86.6477 8 81.8477 8C74.381 8 69.281 9.8 66.5477 13.4C63.8143 17 62.4477 23.3667 62.4477 32.5C62.4477 37.0333 62.681 40.7667 63.1477 43.7C63.6143 46.5667 64.381 48.8667 65.4477 50.6ZM385.648 56V64H344.048V1.3H384.748V9H352.548V28.2H381.048V35.7H352.548V56H385.648ZM566.903 41.5V64H558.403V1.3H579.703C588.57 1.3 594.903 2.83333 598.703 5.9C602.57 8.9 604.503 13.9 604.503 20.9C604.503 26.3667 603.27 30.7333 600.803 34C598.403 37.2 594.736 39.3667 589.803 40.5L606.203 64H596.003L580.803 41.5H566.903ZM595.903 20.9C595.903 16.6333 594.67 13.6 592.203 11.8C589.736 9.93333 585.57 9 579.703 9H566.903V34H579.703C585.436 34 589.57 32.9667 592.103 30.9C594.636 28.8333 595.903 25.5 595.903 20.9Z" fill="#B3DFD3"/>
<path d="M159.889 56V64H121.489V1.3H129.989V56H159.889ZM421.291 56.8C424.025 56.8 426.891 56.5 429.891 55.9C432.958 55.2333 435.791 54.3667 438.391 53.3V60.9C434.725 62.3667 431.458 63.4 428.591 64C425.791 64.5333 422.858 64.8 419.791 64.8C410.191 64.8 403.425 62.3333 399.491 57.4C395.558 52.4 393.591 44.1 393.591 32.5C393.591 21.3667 395.858 13.2333 400.391 8.1C404.991 2.9 412.291 0.299998 422.291 0.299998C425.358 0.299998 428.091 0.366663 430.491 0.499995C432.891 0.633331 435.058 0.866665 436.991 1.2V8.7C434.658 8.43333 432.291 8.26666 429.891 8.2C427.558 8.06667 425.025 8 422.291 8C414.825 8 409.625 9.86667 406.691 13.6C403.758 17.2667 402.291 23.5667 402.291 32.5C402.291 41.5667 403.625 47.9 406.291 51.5C408.958 55.0333 413.958 56.8 421.291 56.8Z" fill="#A45A49"/>
<path d="M207.057 56V64H168.657V1.3H177.157V56H207.057ZM472.149 31.9L498.749 64H487.749L464.849 35.9H456.649V64H448.149V1.3H456.649V28.4H464.849L487.349 1.3H497.749L472.149 31.9Z" fill="#EFC764"/>
<path d="M256.225 1.3H265.025L241.725 40.2V64H233.225V40.2L209.325 1.3H218.925L237.625 32.6L256.225 1.3Z" fill="#97D4D9"/>
</svg>
