<svg width="164" height="63" viewBox="0 0 164 63" fill="none" xmlns="http://www.w3.org/2000/svg">
<path d="M52.5 13.7V19.4H43.1L39.3 42.9H49V48.6H38.4L36 63H30L32.3 48.6H15.4L13.1 63H7L9.4 48.6H0.6V42.9H10.4L14.2 19.4H4.1V13.7H15.3L17.4 0.299997H23.4L21.2 13.7H38.1L40.3 0.299997H46.3L44.1 13.7H52.5ZM33.3 42.9L37.1 19.4H20.3L16.4 42.9H33.3Z" fill="#EFC764"/>
<path d="M70.8289 42.7V63H62.3289V0.299997H83.6289C92.4956 0.299997 98.8289 1.9 102.629 5.09999C106.496 8.3 108.429 13.5333 108.429 20.8C108.429 28.2 106.429 33.7 102.429 37.3C98.4289 40.9 92.2622 42.7 83.9289 42.7H70.8289ZM99.8289 20.8C99.8289 16.2 98.5622 12.9333 96.0289 11C93.5622 9 89.4289 8 83.6289 8H70.8289V35.2H83.6289C89.4289 35.2 93.5622 34.0667 96.0289 31.8C98.5622 29.5333 99.8289 25.8667 99.8289 20.8Z" fill="#FEAFBE"/>
<path d="M163.677 45C163.677 51.4 161.943 56 158.477 58.8C155.01 61.6 149.443 63 141.777 63H118.677V0.299997H141.677C148.61 0.299997 153.543 1.46666 156.477 3.8C159.41 6.13333 160.877 10.1333 160.877 15.8C160.877 19.8667 160.143 23 158.677 25.2C157.277 27.4 154.877 28.9 151.477 29.7C155.543 30.2333 158.577 31.7667 160.577 34.3C162.643 36.8333 163.677 40.4 163.677 45ZM152.977 17C152.977 13.5333 152.143 11.1333 150.477 9.8C148.81 8.4 145.91 7.7 141.777 7.7H127.177V27.3H141.777C145.777 27.3 148.643 26.5 150.377 24.9C152.11 23.3 152.977 20.6667 152.977 17ZM155.477 44.5C155.477 40.7667 154.443 38.1667 152.377 36.7C150.31 35.2333 146.777 34.5 141.777 34.5H127.177V55.4H141.777C146.777 55.4 150.31 54.6 152.377 53C154.443 51.4 155.477 48.5667 155.477 44.5Z" fill="#B3DFD3"/>
</svg>
